<?xml version="1.0" encoding="UTF-8" standalone="no"?>
<svg width="464px" height="123px" viewBox="0 0 464 123" version="1.1" xmlns="http://www.w3.org/2000/svg" xmlns:xlink="http://www.w3.org/1999/xlink" xmlns:sketch="http://www.bohemiancoding.com/sketch/ns">
    <!-- Generator: Sketch 3.1.1 (8761) - http://www.bohemiancoding.com/sketch -->
    <title>Group 2 + Sentinel 2 + CoachBot</title>
    <desc>Created with Sketch.</desc>
    <defs>
        <path id="path-1" d="M45.5235358,117.924099 C78.060183,117.924099 91.0470717,91.5258902 91.0470717,58.9620495 C91.0470717,26.3982087 78.060183,0 45.5235358,0 C12.9868887,0 0,26.3982087 0,58.9620495 C0,91.5258902 12.9868887,117.924099 45.5235358,117.924099 Z"></path>
        <filter x="-50%" y="-50%" width="200%" height="200%" filterUnits="objectBoundingBox" id="filter-2">
            <feOffset dx="0" dy="-4" in="SourceAlpha" result="shadowOffsetInner1"></feOffset>
            <feGaussianBlur stdDeviation="0" in="shadowOffsetInner1" result="shadowBlurInner1"></feGaussianBlur>
            <feComposite in="shadowBlurInner1" in2="SourceAlpha" operator="arithmetic" k2="-1" k3="1" result="shadowInnerInner1"></feComposite>
            <feColorMatrix values="0 0 0 0 1   0 0 0 0 1   0 0 0 0 1  0 0 0 0.202779665 0" in="shadowInnerInner1" type="matrix" result="shadowMatrixInner1"></feColorMatrix>
            <feMerge>
                <feMergeNode in="SourceGraphic"></feMergeNode>
                <feMergeNode in="shadowMatrixInner1"></feMergeNode>
            </feMerge>
        </filter>
    </defs>
    <g id="Page-1" stroke="none" stroke-width="1" fill="none" fill-rule="evenodd" sketch:type="MSPage">
        <g id="Group-2-+-Sentinel-2-+-CoachBot" sketch:type="MSLayerGroup" transform="translate(0.000000, 1.000000)">
            <g>
                <g id="Group-2-+-Sentinel-2">
                    <g id="Group-2">
                        <g id="Group" transform="translate(0.000000, -0.021636)">
                            <g id="Oval-5">
                                <use fill="#595858" fill-rule="evenodd" sketch:type="MSShapeGroup" xlink:href="#path-1"></use>
                                <use fill="none" xlink:href="#path-1"></use>
                            </g>
                            <g transform="translate(11.394735, 7.319427)" id="Oval-1" sketch:type="MSShapeGroup">
                                <ellipse stroke="#B1B1B1" stroke-width="7" fill="#FFFFFF" cx="34.3319485" cy="34.3606426" rx="34.3319485" ry="34.3606426"></ellipse>
                                <ellipse stroke="#E4E4E4" stroke-width="14" fill="#1368C8" cx="34.2983062" cy="34.200364" rx="21.3641428" ry="21.2553904"></ellipse>
                                <ellipse fill="#FFFFFF" cx="45.5917583" cy="22.8786632" rx="6.18111919" ry="6.14965472"></ellipse>
                            </g>
                            <g id="Oval-12-+-MOUTH" transform="translate(31.241642, 81.296159)" sketch:type="MSShapeGroup">
                                <path d="M14.2818936,14.3154663 C21.1836066,14.3154663 28.5219457,10.3560075 28.5219457,3.44852612 C28.5219457,-3.45895525 21.1836066,2.25504713 14.2818936,2.25504713 C7.38018057,2.25504713 -0.0156905569,-3.45895529 -0.0156905569,3.44852608 C-0.0156905569,10.3560074 7.38018057,14.3154663 14.2818936,14.3154663 Z" id="Oval-12" fill-opacity="0.780117754" fill="#1B1B1B" filter="url(#filter-2)"></path>
                                <g id="MOUTH" transform="translate(14.505048, 7.593597) rotate(-180.000000) translate(-14.505048, -7.593597) translate(7.587256, 2.233411)" fill="#FFFFFF">
                                    <path d="M0.118983718,10.0630085 C0.118983718,10.0630085 0.377773989,6.85183831 0.776132355,4.38007929 C1.41349053,0.425359238 2.40812598,-1.69005113 3.27173962,2.42953236 C4.67512468,9.12391699 4.25083335,9.08823746 4.25083335,9.08823746 L0.118983718,10.0630085 Z" id="Path-7"></path>
                                    <path d="M9.49147639,9.29736036 C9.49147639,9.29736036 11.2408472,-4.13713607 12.6442323,2.55724856 C14.0476173,9.25163319 13.623326,10.5560002 13.623326,10.5560002 L9.49147639,9.29736036 Z" id="Path-7"></path>
                                </g>
                            </g>
                        </g>
                    </g>
                </g>
                <path d="M152.918945,72.8671875 C150.343412,78.4381789 146.452174,81.2236328 141.245117,81.2236328 C139.061513,81.2236328 137.18588,80.7617234 135.618164,79.8378906 C134.022453,79.0540325 132.734705,78.0322329 131.754883,76.7724609 C130.551101,75.4566992 129.753257,73.7350367 129.361328,71.6074219 C128.913409,69.4798071 128.689453,65.4066056 128.689453,59.3876953 C128.689453,53.368785 128.913409,49.267589 129.361328,47.0839844 C129.753257,45.0123594 130.551101,43.3186915 131.754883,42.0029297 C132.734705,40.7431578 134.022453,39.6933636 135.618164,38.8535156 C137.18588,38.0416626 139.061513,37.6077477 141.245117,37.5517578 C144.21258,37.6077477 146.732086,38.4615803 148.803711,40.1132812 C150.791351,41.848967 152.163082,43.9485554 152.918945,46.4121094 L162.745117,46.4121094 C161.765295,41.2890369 159.413756,36.9918793 155.69043,33.5205078 C151.967104,30.0771312 147.152048,28.3274742 141.245117,28.2714844 C136.429989,28.3274742 132.412777,29.4752492 129.193359,31.7148438 C125.917952,33.9264433 123.538419,36.4459494 122.054688,39.2734375 C121.130855,40.7571689 120.444989,42.7027874 119.99707,45.1103516 C119.577146,47.5179157 119.367188,52.2769827 119.367188,59.3876953 C119.367188,66.3864282 119.577146,71.1175007 119.99707,73.5810547 C120.22103,74.8968165 120.500975,75.9886024 120.836914,76.8564453 C121.200848,77.6962933 121.606769,78.5781204 122.054688,79.5019531 C123.538419,82.3294412 125.917952,84.8209528 129.193359,86.9765625 C132.412777,89.216157 136.429989,90.3919265 141.245117,90.5039062 C146.564154,90.5039062 151.169251,88.9922026 155.060547,85.96875 C158.839863,82.9173025 161.40136,78.5501586 162.745117,72.8671875 L152.918945,72.8671875 Z M168.356446,68.1640625 C168.356446,72.7552313 168.734371,76.2545453 169.490235,78.6621094 C170.274093,81.0696735 171.477857,83.1552646 173.101563,84.9189453 C174.305345,86.290697 175.985016,87.5224555 178.140625,88.6142578 C180.26824,89.8180399 182.997705,90.4479164 186.329102,90.5039062 C189.772478,90.4479164 192.557932,89.8180399 194.685547,88.6142578 C195.833339,88.110349 196.771155,87.508467 197.499024,86.8085938 C198.310877,86.1927053 198.996742,85.5628287 199.556641,84.9189453 C201.292327,83.1552646 202.524085,81.0696735 203.251953,78.6621094 C203.951827,76.2545453 204.301758,72.7552313 204.301758,68.1640625 C204.301758,63.5728937 203.951827,60.0455852 203.251953,57.5820312 C202.524085,55.1744671 201.292327,53.144865 199.556641,51.4931641 C198.408849,50.0374276 196.785167,48.7356828 194.685547,47.5878906 C192.557932,46.4960883 189.772478,45.9222008 186.329102,45.8662109 C182.997705,45.9222008 180.26824,46.4960883 178.140625,47.5878906 C175.985016,48.7356828 174.305345,50.0374276 173.101563,51.4931641 C171.477857,53.144865 170.274093,55.1744671 169.490235,57.5820312 C168.734371,60.0455852 168.356446,63.5728937 168.356446,68.1640625 L168.356446,68.1640625 Z M195.525391,68.2480469 C195.525391,71.2155096 195.385418,73.3990815 195.105469,74.7988281 C194.82552,76.2265696 194.251632,77.4863227 193.383789,78.578125 C192.739906,79.4179729 191.788092,80.1598275 190.528321,80.8037109 C189.324538,81.4195994 187.924813,81.7275391 186.329102,81.7275391 C184.84537,81.7275391 183.473639,81.4195994 182.213867,80.8037109 C181.010085,80.1598275 180.030277,79.4179729 179.274414,78.578125 C178.518551,77.4863227 177.972658,76.2265696 177.636719,74.7988281 C177.30078,73.3990815 177.132813,71.1875151 177.132813,68.1640625 C177.132813,65.112615 177.30078,62.873054 177.636719,61.4453125 C177.972658,60.0735608 178.518551,58.8697968 179.274414,57.8339844 C180.030277,56.8541618 181.010085,56.0843127 182.213867,55.5244141 C183.473639,54.9365205 184.84537,54.6425781 186.329102,54.6425781 C187.924813,54.6425781 189.324538,54.9365205 190.528321,55.5244141 C191.788092,56.0843127 192.739906,56.8541618 193.383789,57.8339844 C194.251632,58.8697968 194.82552,60.0735608 195.105469,61.4453125 C195.385418,62.873054 195.525391,65.1406095 195.525391,68.2480469 L195.525391,68.2480469 Z M238.38379,90 L247.160157,90 L247.160157,60.2275391 C247.104167,54.9085021 245.438493,51.1572375 242.163086,48.9736328 C238.887679,46.846018 234.506538,45.8102211 229.019532,45.8662109 C222.524708,45.7542312 217.611671,47.8818141 214.280274,52.2490234 L221.166993,57.4980469 C221.922856,56.238275 222.958653,55.3424506 224.274415,54.8105469 C225.534186,54.362628 227.255849,54.1386719 229.439454,54.1386719 C235.458364,54.0266921 238.439779,55.8883272 238.38379,59.7236328 L238.38379,64.3007812 L226.248047,64.3007812 C221.600889,64.3567711 218.07358,65.6165241 215.666016,68.0800781 C213.258452,70.4876422 212.054688,73.5250468 212.054688,77.1923828 C212.054688,81.0276884 213.440416,84.177071 216.211915,86.640625 C218.843438,89.1601688 222.594703,90.4479164 227.465821,90.5039062 C230.433284,90.5039062 232.756828,90.1399776 234.436524,89.4121094 C236.144215,88.7122361 237.403968,87.6204501 238.215821,86.1367188 L238.38379,86.1367188 L238.38379,90 Z M238.38379,74.6728516 C238.38379,77.9482586 237.697924,80.0478469 236.326172,80.9716797 C234.814446,81.8955124 232.224954,82.3294274 228.557618,82.2734375 C225.646145,82.2734375 223.560554,81.69955 222.300782,80.5517578 C220.98502,79.5159453 220.327149,78.2561923 220.327149,76.7724609 C220.271159,73.3850742 222.790665,71.6354172 227.885743,71.5234375 L238.38379,71.5234375 L238.38379,74.6728516 Z M286.113282,77.1923828 C283.901682,80.1598456 280.948261,81.6715492 277.25293,81.7275391 C269.806279,81.8675137 266.02702,77.3743946 265.91504,68.2480469 C266.02702,59.0657093 269.806279,54.5305984 277.25293,54.6425781 C280.948261,54.7545579 283.901682,56.2802587 286.113282,59.2197266 L292.580079,53.4667969 C290.676423,51.1712125 288.436863,49.337572 285.861329,47.9658203 C283.285795,46.6220636 280.30438,45.9222008 276.916993,45.8662109 C271.765925,45.8102211 267.244812,47.5318835 263.353516,51.03125 C259.322246,54.5866063 257.250652,60.3254812 257.138673,68.2480469 C257.250652,76.0866277 259.322246,81.7555164 263.353516,85.2548828 C267.244812,88.7542493 271.765925,90.5039062 276.916993,90.5039062 C280.30438,90.4479164 283.285795,89.7060618 285.861329,88.2783203 C288.436863,86.9065687 290.676423,85.1289172 292.580079,82.9453125 L286.113282,77.1923828 Z M300.668946,90 L309.445313,90 L309.445313,64.0488281 C309.445313,60.9973806 310.271152,58.6738361 311.922853,57.078125 C313.546559,55.454419 315.618152,54.6425781 318.137696,54.6425781 C320.65724,54.6425781 322.714837,55.454419 324.310548,57.078125 C325.934254,58.6738361 326.746095,60.9973806 326.746095,64.0488281 L326.746095,90 L335.522462,90 L335.522462,61.0253906 C335.382487,56.0422928 333.828792,52.2630337 330.861329,49.6875 C327.865871,47.1399612 324.562519,45.8662109 320.951173,45.8662109 C316.276019,45.8662109 312.49676,47.5878734 309.613282,51.03125 L309.445313,51.03125 L309.445313,28.7753906 L300.668946,28.7753906 L300.668946,90 Z M349.658204,90 L375.441407,90 C380.256536,90 384.273748,88.3903156 387.493165,85.1708984 C390.740577,82.091456 392.392254,77.9062765 392.448243,72.6152344 C392.448243,69.4238122 391.6504,66.4703912 390.054689,63.7548828 C388.346998,61.1233592 385.827492,59.3737023 382.496095,58.5058594 L382.496095,58.3378906 C384.259776,57.4980427 385.743485,56.5602265 386.947267,55.5244141 C388.151049,54.5445915 389.074868,53.5087945 389.718751,52.4169922 C390.978523,50.1214078 391.580405,47.7138798 391.524415,45.1943359 C391.524415,40.267228 389.998714,36.3060046 386.947267,33.3105469 C383.923814,30.3430841 379.402701,28.8313805 373.38379,28.7753906 L349.658204,28.7753906 L349.658204,90 Z M373.215822,62.8310547 C376.659198,62.8870446 379.178704,63.7968662 380.774415,65.5605469 C382.370126,67.3522225 383.16797,69.5077999 383.16797,72.0273438 C383.16797,74.4908977 382.370126,76.6184806 380.774415,78.4101562 C379.178704,80.2298268 376.659198,81.1676429 373.215822,81.2236328 L358.938478,81.2236328 L358.938478,62.8310547 L373.215822,62.8310547 Z M372.333986,37.0478516 C375.721372,37.1038414 378.212884,37.9296795 379.808595,39.5253906 C381.432301,41.2330815 382.244142,43.3186726 382.244142,45.7822266 C382.244142,48.2457805 381.432301,50.2893799 379.808595,51.9130859 C378.212884,53.6767666 375.721372,54.5585938 372.333986,54.5585938 L358.938478,54.5585938 L358.938478,37.0478516 L372.333986,37.0478516 Z M401.166994,68.1640625 C401.166994,72.7552313 401.54492,76.2545453 402.300783,78.6621094 C403.084641,81.0696735 404.288405,83.1552646 405.912111,84.9189453 C407.115893,86.290697 408.795564,87.5224555 410.951173,88.6142578 C413.078788,89.8180399 415.808253,90.4479164 419.13965,90.5039062 C422.583026,90.4479164 425.36848,89.8180399 427.496095,88.6142578 C428.643887,88.110349 429.581704,87.508467 430.309572,86.8085938 C431.121425,86.1927053 431.80729,85.5628287 432.367189,84.9189453 C434.102875,83.1552646 435.334633,81.0696735 436.062501,78.6621094 C436.762375,76.2545453 437.112306,72.7552313 437.112306,68.1640625 C437.112306,63.5728937 436.762375,60.0455852 436.062501,57.5820312 C435.334633,55.1744671 434.102875,53.144865 432.367189,51.4931641 C431.219397,50.0374276 429.595715,48.7356828 427.496095,47.5878906 C425.36848,46.4960883 422.583026,45.9222008 419.13965,45.8662109 C415.808253,45.9222008 413.078788,46.4960883 410.951173,47.5878906 C408.795564,48.7356828 407.115893,50.0374276 405.912111,51.4931641 C404.288405,53.144865 403.084641,55.1744671 402.300783,57.5820312 C401.54492,60.0455852 401.166994,63.5728937 401.166994,68.1640625 L401.166994,68.1640625 Z M428.335939,68.2480469 C428.335939,71.2155096 428.195966,73.3990815 427.916017,74.7988281 C427.636068,76.2265696 427.06218,77.4863227 426.194337,78.578125 C425.550454,79.4179729 424.598641,80.1598275 423.338869,80.8037109 C422.135087,81.4195994 420.735361,81.7275391 419.13965,81.7275391 C417.655918,81.7275391 416.284187,81.4195994 415.024415,80.8037109 C413.820633,80.1598275 412.840826,79.4179729 412.084962,78.578125 C411.329099,77.4863227 410.783206,76.2265696 410.447267,74.7988281 C410.111328,73.3990815 409.943361,71.1875151 409.943361,68.1640625 C409.943361,65.112615 410.111328,62.873054 410.447267,61.4453125 C410.783206,60.0735608 411.329099,58.8697968 412.084962,57.8339844 C412.840826,56.8541618 413.820633,56.0843127 415.024415,55.5244141 C416.284187,54.9365205 417.655918,54.6425781 419.13965,54.6425781 C420.735361,54.6425781 422.135087,54.9365205 423.338869,55.5244141 C424.598641,56.0843127 425.550454,56.8541618 426.194337,57.8339844 C427.06218,58.8697968 427.636068,60.0735608 427.916017,61.4453125 C428.195966,62.873054 428.335939,65.1406095 428.335939,68.2480469 L428.335939,68.2480469 Z M448.812502,46.4121094 L444.445314,46.4121094 L444.445314,53.0888672 L448.812502,53.0888672 L448.812502,79.25 C448.812502,82.6933766 449.820304,85.3248607 451.835939,87.1445312 C453.795584,89.0481866 456.31509,90 459.394533,90 L463.971681,90 L463.971681,81.7275391 L460.696291,81.7275391 C458.568676,81.7835289 457.532879,80.7057402 457.588869,78.4941406 L457.588869,53.0888672 L463.971681,53.0888672 L463.971681,46.4121094 L457.588869,46.4121094 L457.588869,33.1425781 L448.812502,33.1425781 L448.812502,46.4121094 Z" id="CoachBot" fill="#FFFFFF" sketch:type="MSShapeGroup"></path>
            </g>
        </g>
    </g>
</svg>